# xmcd CD database file
#
# Track frame offsets:
#	150
#	13004
#	25022
#	39342
#	52133
#	66903
#	81238
#	93249
#	102329
#	115264
#	126633
#	138311
#	154051
#	167757
#	181821
#	195156
#	208203
#	224886
#
# Disc length: 3155 seconds
#
# Revision: 0
# Processed by: cddbd v1.5.2PL0 Copyright (c) Steve Scherf et al.
# Submitted via: CDex 1.70beta2
#
DISCID=040c5112
DTITLE=Billie Holiday - The Discovery Of Jazz CD 1
DYEAR=2004
DGENRE=Jazz
TTITLE0=A Fine Romance
TTITLE1=Billie's Blues
TTITLE2=As Time Goes By
TTITLE3=A Sailboat In The Moonlight
TTITLE4=Can't Help Lovin' That Man
TTITLE5=Baby I Don't Cry Over You
TTITLE6=Back In Your Own Backyard
TTITLE7=Blue Turning Grey Over You
TTITLE8=Am I Blue?
TTITLE9=Big Stuff
TTITLE10=Be Fair With My Baby
TTITLE11=Blue Moon
TTITLE12=All Of Me
TTITLE13=April In My Heart
TTITLE14=Body And Soul
TTITLE15=A Sunbonnet Blue
TTITLE16=Autumn In New York
TTITLE17=Born To Love
EXTD=YEAR: 2004
EXTT0=
EXTT1=
EXTT2=
EXTT3=
EXTT4=
EXTT5=
EXTT6=
EXTT7=
EXTT8=
EXTT9=
EXTT10=
EXTT11=
EXTT12=
EXTT13=
EXTT14=
EXTT15=
EXTT16=
EXTT17=
PLAYORDER=
